<svg viewBox="0 0 400 300" xmlns="http://www.w3.org/2000/svg">
  <!-- Background circle for logo mark -->
  <circle cx="200" cy="150" r="80" fill="#3B82F6" opacity="0.1"/>
  
  <!-- Flow lines representing collaboration streams -->
  <path d="M 120 130 Q 160 110 200 130" stroke="#3B82F6" stroke-width="8" fill="none" stroke-linecap="round" opacity="0.6"/>
  <path d="M 200 130 Q 240 150 280 130" stroke="#3B82F6" stroke-width="8" fill="none" stroke-linecap="round" opacity="0.6"/>
  <path d="M 140 160 Q 170 145 200 160" stroke="#60A5FA" stroke-width="6" fill="none" stroke-linecap="round" opacity="0.7"/>
  <path d="M 200 160 Q 230 175 260 160" stroke="#60A5FA" stroke-width="6" fill="none" stroke-linecap="round" opacity="0.7"/>
  
  <!-- Central hub circle -->
  <circle cx="200" cy="150" r="35" fill="#3B82F6"/>
  <circle cx="200" cy="150" r="25" fill="#60A5FA"/>
  <circle cx="200" cy="150" r="12" fill="white"/>
  
  <!-- Connection nodes (people/teams) -->
  <circle cx="120" cy="130" r="12" fill="#3B82F6"/>
  <circle cx="120" cy="130" r="6" fill="white"/>
  
  <circle cx="280" cy="130" r="12" fill="#3B82F6"/>
  <circle cx="280" cy="130" r="6" fill="white"/>
  
  <circle cx="140" cy="160" r="10" fill="#60A5FA"/>
  <circle cx="140" cy="160" r="5" fill="white"/>
  
  <circle cx="260" cy="160" r="10" fill="#60A5FA"/>
  <circle cx="260" cy="160" r="5" fill="white"/>
</svg>
